{"title":"The.Rachel.Maddow.Show.2013.03.07.+.08.x264","uid":8234544,"size":372884729,"categoryP":"video","categoryS":"tv_shows","magnet":"?xt=urn:btih:82e6e89c23523543a779193ae6bf581d64e93c0d&amp;dn=The.Rachel.Maddow.Show.2013.03.07.%2B.08.x264&amp;tr=udp%3A%2F%2Ftracker.openbittorrent.com%3A80&amp;tr=udp%3A%2F%2Fopen.demonii.com%3A1337&amp;tr=udp%3A%2F%2Ftracker.coppersurfer.tk%3A6969&amp;tr=udp%3A%2F%2Fexodus.desync.com%3A6969","seeders":1,"leechers":0,"uploader":null,"files":1,"time":1362810934,"description":"\nThe Rachel Maddow Show - mkv\nMarch 7 and 8th  - 2013 - 92 minutes in length\nBoth days are joined into one file\nPlus about 5 minutes of the Ed show when they discuss Bill OReillys outburst that was in the news the other day.\nEds bit starts the video\nMarch 7 starts at 5:27\nMarch 8 starts at 48:51\n\n\nVideo\nID                               : 1\nFormat                           : AVC\nFormat/Info                      : Advanced Video Codec\nFormat profile                   : &lt;a class=&quot;__cf_email__&quot; href=&quot;/cdn-cgi/l/email-protection&quot; data-cfemail=&quot;bbf3d2dcd3fbf789958a&quot;&gt;[email&amp;#160;protected]&lt;/a&gt;&lt;script cf-hash='f9e31' type=&quot;text/javascript&quot;&gt;\n/* &lt;![CDATA[ */!function(){try{var t=&quot;currentScript&quot;in document?document.currentScript:function(){for(var t=document.getElementsByTagName(&quot;script&quot;),e=t.length;e--;)if(t[e].getAttribute(&quot;cf-hash&quot;))return t[e]}();if(t&amp;&amp;t.previousSibling){var e,r,n,i,c=t.previousSibling,a=c.getAttribute(&quot;data-cfemail&quot;);if(a){for(e=&quot;&quot;,r=parseInt(a.substr(0,2),16),n=2;a.length-n;n+=2)i=parseInt(a.substr(n,2),16)^r,e+=String.fromCharCode(i);e=document.createTextNode(e),c.parentNode.replaceChild(e,c)}}}catch(u){}}();/* ]]&gt; */&lt;/script&gt;\nFormat settings, CABAC           : Yes\nFormat settings, ReFrames        : 4 frames\nCodec ID                         : V_MPEG4/ISO/AVC\nDuration                         : 1h 32mn\nBit rate                         : 450 Kbps\nWidth                            : 512 pixels\nHeight                           : 288 pixels\nDisplay aspect ratio             : 16:9\nFrame rate                       : 29.970 fps\nColor space                      : YUV\nChroma subsampling               : 4:2:0\nBit depth                        : 8 bits\nScan type                        : Progressive\nBits/(Pixel*Frame)               : 0.102\nStream size                      : 285 MiB (80%)\nWriting library                  : x264 core 120\n\n\nAudio\nID                               : 2\nFormat                           : Vorbis\nFormat settings, Floor           : 1\nCodec ID                         : A_VORBIS\nDuration                         : 1h 32mn\nBit rate mode                    : Variable\nBit rate                         : 96.0 Kbps\nChannel(s)                       : 2 channels\nSampling rate                    : 48.0 KHz\nCompression mode                 : Lossy\nStream size                      : 63.4 MiB (18%)","torrent":{"xt":"urn:btih:82e6e89c23523543a779193ae6bf581d64e93c0d","amp;dn":"The.Rachel.Maddow.Show.2013.03.07.%2B.08.x264","amp;tr":["udp%3A%2F%2Ftracker.openbittorrent.com%3A80","udp%3A%2F%2Fopen.demonii.com%3A1337","udp%3A%2F%2Ftracker.coppersurfer.tk%3A6969","udp%3A%2F%2Fexodus.desync.com%3A6969"],"infoHash":"82e6e89c23523543a779193ae6bf581d64e93c0d","infoHashBuffer":{"type":"Buffer","data":[130,230,232,156,35,82,53,67,167,121,25,58,230,191,88,29,100,233,60,13]},"announce":[],"urlList":[]}}